<svg width="104" height="36" viewBox="0 0 104 36" fill="none" xmlns="http://www.w3.org/2000/svg">
<path d="M10.702 10.552H5.374L4.384 13H0.748002L6.31 0.399999H9.82L15.4 13H11.692L10.702 10.552ZM9.658 7.924L8.038 3.892L6.418 7.924H9.658ZM19.5064 4.414C19.8544 3.97 20.3044 3.64 20.8564 3.424C21.4204 3.196 22.0624 3.082 22.7824 3.082V6.16C22.4704 6.124 22.2124 6.106 22.0084 6.106C21.2764 6.106 20.7004 6.304 20.2804 6.7C19.8724 7.096 19.6684 7.702 19.6684 8.518V13H16.2484V3.244H19.5064V4.414ZM31.2245 12.604C30.9365 12.784 30.5825 12.922 30.1625 13.018C29.7545 13.114 29.3165 13.162 28.8485 13.162C27.5765 13.162 26.5985 12.85 25.9145 12.226C25.2305 11.602 24.8885 10.672 24.8885 9.436V6.16H23.4665V3.604H24.8885V1.066H28.3085V3.604H30.5405V6.16H28.3085V9.4C28.3085 9.748 28.3985 10.024 28.5785 10.228C28.7705 10.42 29.0225 10.516 29.3345 10.516C29.7305 10.516 30.0785 10.414 30.3785 10.21L31.2245 12.604ZM42.2341 8.14C42.2341 8.164 42.2161 8.446 42.1801 8.986H35.0881C35.2321 9.49 35.5081 9.88 35.9161 10.156C36.3361 10.42 36.8581 10.552 37.4821 10.552C37.9501 10.552 38.3521 10.486 38.6881 10.354C39.0361 10.222 39.3841 10.006 39.7321 9.706L41.5321 11.578C40.5841 12.634 39.1981 13.162 37.3741 13.162C36.2341 13.162 35.2321 12.946 34.3681 12.514C33.5041 12.082 32.8321 11.482 32.3521 10.714C31.8841 9.946 31.6501 9.076 31.6501 8.104C31.6501 7.144 31.8781 6.286 32.3341 5.53C32.8021 4.762 33.4441 4.162 34.2601 3.73C35.0761 3.298 35.9941 3.082 37.0141 3.082C37.9861 3.082 38.8681 3.286 39.6601 3.694C40.4521 4.09 41.0761 4.672 41.5321 5.44C42.0001 6.196 42.2341 7.096 42.2341 8.14ZM37.0321 5.512C36.5041 5.512 36.0601 5.662 35.7001 5.962C35.3521 6.262 35.1301 6.67 35.0341 7.186H39.0301C38.9341 6.67 38.7061 6.262 38.3461 5.962C37.9981 5.662 37.5601 5.512 37.0321 5.512ZM56.5189 3.082C57.7189 3.082 58.6729 3.442 59.3809 4.162C60.1009 4.882 60.4609 5.968 60.4609 7.42V13H57.0409V7.978C57.0409 7.294 56.9089 6.79 56.6449 6.466C56.3929 6.142 56.0329 5.98 55.5649 5.98C55.0489 5.98 54.6349 6.16 54.3229 6.52C54.0109 6.88 53.8549 7.426 53.8549 8.158V13H50.4349V7.978C50.4349 6.646 49.9429 5.98 48.9589 5.98C48.4309 5.98 48.0109 6.16 47.6989 6.52C47.3869 6.88 47.2309 7.426 47.2309 8.158V13H43.8109V3.244H47.0689V4.27C47.4289 3.874 47.8549 3.58 48.3469 3.388C48.8509 3.184 49.3969 3.082 49.9849 3.082C50.6689 3.082 51.2809 3.208 51.8209 3.46C52.3609 3.712 52.7989 4.096 53.1349 4.612C53.5189 4.12 54.0049 3.742 54.5929 3.478C55.1809 3.214 55.8229 3.082 56.5189 3.082ZM7.12 30.428L5.788 31.85V35H2.26V22.4H5.788V27.638L10.666 22.4H14.59L9.442 27.98L14.86 35H10.72L7.12 30.428ZM25.6119 25.244V35H22.3539V33.956C21.9939 34.352 21.5619 34.652 21.0579 34.856C20.5539 35.06 20.0199 35.162 19.4559 35.162C18.1959 35.162 17.1879 34.79 16.4319 34.046C15.6879 33.302 15.3159 32.186 15.3159 30.698V25.244H18.7359V30.14C18.7359 30.872 18.8739 31.406 19.1499 31.742C19.4259 32.078 19.8279 32.246 20.3559 32.246C20.8959 32.246 21.3339 32.06 21.6699 31.688C22.0179 31.304 22.1919 30.722 22.1919 29.942V25.244H25.6119ZM36.3108 32.444V35H27.3108V32.984L31.8288 27.782H27.4368V25.244H36.1308V27.242L31.6128 32.444H36.3108ZM50.5248 25.082C51.7248 25.082 52.6788 25.442 53.3868 26.162C54.1068 26.882 54.4668 27.968 54.4668 29.42V35H51.0468V29.978C51.0468 29.294 50.9148 28.79 50.6508 28.466C50.3988 28.142 50.0388 27.98 49.5708 27.98C49.0548 27.98 48.6408 28.16 48.3288 28.52C48.0168 28.88 47.8608 29.426 47.8608 30.158V35H44.4408V29.978C44.4408 28.646 43.9488 27.98 42.9648 27.98C42.4368 27.98 42.0168 28.16 41.7048 28.52C41.3928 28.88 41.2368 29.426 41.2368 30.158V35H37.8168V25.244H41.0748V26.27C41.4348 25.874 41.8608 25.58 42.3528 25.388C42.8568 25.184 43.4028 25.082 43.9908 25.082C44.6748 25.082 45.2868 25.208 45.8268 25.46C46.3668 25.712 46.8048 26.096 47.1408 26.612C47.5248 26.12 48.0108 25.742 48.5988 25.478C49.1868 25.214 49.8288 25.082 50.5248 25.082ZM66.738 30.14C66.738 30.164 66.72 30.446 66.684 30.986H59.592C59.736 31.49 60.012 31.88 60.42 32.156C60.84 32.42 61.362 32.552 61.986 32.552C62.454 32.552 62.856 32.486 63.192 32.354C63.54 32.222 63.888 32.006 64.236 31.706L66.036 33.578C65.088 34.634 63.702 35.162 61.878 35.162C60.738 35.162 59.736 34.946 58.872 34.514C58.008 34.082 57.336 33.482 56.856 32.714C56.388 31.946 56.154 31.076 56.154 30.104C56.154 29.144 56.382 28.286 56.838 27.53C57.306 26.762 57.948 26.162 58.764 25.73C59.58 25.298 60.498 25.082 61.518 25.082C62.49 25.082 63.372 25.286 64.164 25.694C64.956 26.09 65.58 26.672 66.036 27.44C66.504 28.196 66.738 29.096 66.738 30.14ZM61.536 27.512C61.008 27.512 60.564 27.662 60.204 27.962C59.856 28.262 59.634 28.67 59.538 29.186H63.534C63.438 28.67 63.21 28.262 62.85 27.962C62.502 27.662 62.064 27.512 61.536 27.512ZM74.6688 25.082C75.8808 25.082 76.8528 25.442 77.5848 26.162C78.3288 26.882 78.7008 27.968 78.7008 29.42V35H75.2808V29.978C75.2808 28.646 74.7468 27.98 73.6788 27.98C73.0908 27.98 72.6168 28.172 72.2568 28.556C71.9088 28.94 71.7348 29.516 71.7348 30.284V35H68.3148V25.244H71.5728V26.306C71.9568 25.91 72.4128 25.61 72.9408 25.406C73.4688 25.19 74.0448 25.082 74.6688 25.082ZM85.276 31.58L84.268 32.606V35H80.848V21.644H84.268V28.646L87.76 25.244H91.81L87.76 29.42L92.152 35H88.012L85.276 31.58ZM97.6444 35.162C96.6004 35.162 95.6584 34.946 94.8184 34.514C93.9784 34.082 93.3184 33.482 92.8384 32.714C92.3704 31.946 92.1364 31.076 92.1364 30.104C92.1364 29.144 92.3704 28.28 92.8384 27.512C93.3184 26.744 93.9724 26.15 94.8004 25.73C95.6404 25.298 96.5884 25.082 97.6444 25.082C98.7004 25.082 99.6484 25.298 100.488 25.73C101.328 26.15 101.982 26.744 102.45 27.512C102.918 28.268 103.152 29.132 103.152 30.104C103.152 31.076 102.918 31.946 102.45 32.714C101.982 33.482 101.328 34.082 100.488 34.514C99.6484 34.946 98.7004 35.162 97.6444 35.162ZM97.6444 32.444C98.2444 32.444 98.7364 32.24 99.1204 31.832C99.5044 31.412 99.6964 30.836 99.6964 30.104C99.6964 29.384 99.5044 28.82 99.1204 28.412C98.7364 28.004 98.2444 27.8 97.6444 27.8C97.0444 27.8 96.5524 28.004 96.1684 28.412C95.7844 28.82 95.5924 29.384 95.5924 30.104C95.5924 30.836 95.7844 31.412 96.1684 31.832C96.5524 32.24 97.0444 32.444 97.6444 32.444Z" fill="black"/>
</svg>
